<svg xmlns="http://www.w3.org/2000/svg" xmlns:xlink="http://www.w3.org/1999/xlink" viewBox="0 0 102.65 103"><defs><style>.cls-1,.cls-2{fill:none;}.cls-1{clip-rule:evenodd;}.cls-3{clip-path:url(#clip-path);}.cls-4{clip-path:url(#clip-path-2);}.cls-5{fill:#7d7f81;}.cls-6{clip-path:url(#clip-path-3);}.cls-7{clip-path:url(#clip-path-5);}.cls-8{isolation:isolate;}.cls-9{clip-path:url(#clip-path-7);}.cls-10{clip-path:url(#clip-path-8);}.cls-11{fill:#7f8083;}.cls-12{clip-path:url(#clip-path-10);}.cls-13{clip-path:url(#clip-path-12);}.cls-14{clip-path:url(#clip-path-14);}.cls-15{clip-path:url(#clip-path-16);}.cls-16{clip-path:url(#clip-path-18);}</style><clipPath id="clip-path" transform="translate(-408 -2923)"><path class="cls-1" d="M427.44,2950.54a36.08,36.08,0,0,1,23-16.22,36.77,36.77,0,0,1,28.3,5.53,35.58,35.58,0,0,1,10.77,11.77c.51.87,1.88.09,1.37-.77a37.44,37.44,0,0,0-23.07-17.64,38.36,38.36,0,0,0-29.92,4.63,37.1,37.1,0,0,0-11.76,12c-.58.83.79,1.6,1.3.74"/></clipPath><clipPath id="clip-path-2" transform="translate(-408 -2923)"><rect class="cls-2" width="1920" height="4120"/></clipPath><clipPath id="clip-path-3" transform="translate(-408 -2923)"><path class="cls-1" d="M450.25,3014.43a42.89,42.89,0,0,1-33.52-37.69c-1.75-17.92,7.92-35.66,24.39-43.36a41.7,41.7,0,0,1,33.66-.51c.92.38,1.75-1,.8-1.36a43.24,43.24,0,0,0-31.37-1.07,44.22,44.22,0,0,0-21.15,16.15,45.41,45.41,0,0,0,.89,52.89,43.84,43.84,0,0,0,25.89,16.5c1,.19,1.43-1.36.41-1.55"/></clipPath><clipPath id="clip-path-5" transform="translate(-408 -2923)"><rect class="cls-2" x="413" y="2934.07" width="92.65" height="86.93"/></clipPath><clipPath id="clip-path-7" transform="translate(-408 -2923)"><rect class="cls-2" x="413" y="2934" width="93" height="87"/></clipPath><clipPath id="clip-path-8" transform="translate(-408 -2923)"><path class="cls-1" d="M486.4,2935.36a47.69,47.69,0,0,1,10.1,62.87,46.66,46.66,0,0,1-24.4,19,45.82,45.82,0,0,1-32.94-1.8,47.26,47.26,0,0,1-24.59-27.06c-.35-.94-1.87-.53-1.52.41a49.08,49.08,0,0,0,21.63,26.08,47.31,47.31,0,0,0,33.56,5.06c22.42-5,38.08-26.24,37.39-49a49.24,49.24,0,0,0-18.13-36.62c-.76-.63-1.89.47-1.1,1.1"/></clipPath><clipPath id="clip-path-10" transform="translate(-408 -2923)"><path class="cls-1" d="M491.57,2986.42a36.89,36.89,0,0,1-23.67,21.66,34.87,34.87,0,0,1-31.63-6.76,38.28,38.28,0,0,1-10.84-14.9c-.41-1-1.76-.13-1.35.82a38.42,38.42,0,0,0,24.61,22.42,36.45,36.45,0,0,0,32.63-6.76,38.9,38.9,0,0,0,11.6-15.66c.41-.95-.94-1.77-1.35-.82"/></clipPath><clipPath id="clip-path-12" transform="translate(-408 -2923)"><path class="cls-1" d="M485.57,2988.37a32.06,32.06,0,0,1-19.79,15.12,31.33,31.33,0,0,1-26.66-5.75c-.81-.61-1.59.78-.78,1.39a32.74,32.74,0,0,0,27.85,5.91,33.63,33.63,0,0,0,20.69-15.86.77.77,0,0,0-1.31-.81"/></clipPath><clipPath id="clip-path-14" transform="translate(-408 -2923)"><path class="cls-1" d="M467.94,2970.69a.83.83,0,0,0-.07-.3,13.76,13.76,0,0,1-2.79,2.81.93.93,0,0,1-.85.17,1.59,1.59,0,0,0-.07-.2,2.66,2.66,0,0,1,.32-1.39,30.35,30.35,0,0,1,1.81-3.06c.25-.44.54-.88.85-1.42h-1.36c-.28,0-.51,0-.6.37a.52.52,0,0,1-.26.2,1.16,1.16,0,0,0-1-.84,3.53,3.53,0,0,0-3,1.08c-.51.51-.95,1.09-1.46,1.63a.52.52,0,0,1-.67.17c-.19-.1-.41-.17-.41-.44a2.57,2.57,0,0,1,.32-1.6,3.64,3.64,0,0,0,.35-.81,2.06,2.06,0,0,0-1.74.31c-.26.2-.51.44-.77.64l-1.27,1s0,0-.06,0c.35-.58.73-1.16,1.14-1.77a1.55,1.55,0,0,1-.38-.1,6.46,6.46,0,0,1-.88,0,.9.9,0,0,0-.92.61c-.29.58-.61,1.16-.92,1.7a1,1,0,0,1-1.59.2,2.47,2.47,0,0,1-.44-1.08,1.66,1.66,0,0,0-1.08-1.39,3.12,3.12,0,0,0-2.29.06,5.21,5.21,0,0,0-2.78,2.34.82.82,0,0,1-.76.38.67.67,0,0,1-.51-.71,2.18,2.18,0,0,1,.41-1.4,2,2,0,0,0,.35-.78,2.29,2.29,0,0,0-1.81.34,11.52,11.52,0,0,0-.89.82l-.82.71a1.48,1.48,0,0,0-.32.34l-.09-.1c.34-.51.66-1,1-1.5a2.27,2.27,0,0,0,.16-.5c-.48,0-.83,0-1.21,0a.87.87,0,0,0-1,.61c-.25.47-.5,1-.76,1.46a7,7,0,0,1-.51.88,9.17,9.17,0,0,0-.85,1.12,11,11,0,0,1-1.68,1.73,2.66,2.66,0,0,1-.76.44c-.32.13-.51,0-.48-.41,0-.07,0-.13,0-.2a7.39,7.39,0,0,1,.92-2c.64-1.09,1.24-2.14,1.84-3.22a.79.79,0,0,0,0-.38c-.09,0-.13-.06-.16,0a9.59,9.59,0,0,0-1.39.17c-.13,0-.22.17-.29.3a31.18,31.18,0,0,1-2.15,3.67,7.44,7.44,0,0,1-1.84,1.83,1,1,0,0,1-.54.17.35.35,0,0,1-.38-.37,1.12,1.12,0,0,1,.09-.44c.23-.51.45-1,.7-1.53.45-.81.92-1.59,1.36-2.38a13.08,13.08,0,0,0,.7-1.28s0-.11-.06-.14c-.41,0-.82,0-1.27,0a.61.61,0,0,0-.63.37c-.32.58-.64,1.19-.95,1.8a13.55,13.55,0,0,1-.86,1.6,10.66,10.66,0,0,1-2.09,2.1,1.21,1.21,0,0,1-1.18.34c0-.31,0-.61.1-.92a7.23,7.23,0,0,1,1-2c.54-.92,1.14-1.8,1.68-2.71a2.94,2.94,0,0,0,.16-.41h-1.4c-.25,0-.44,0-.53.34,0,.1-.16.13-.23.2a3.79,3.79,0,0,0-.5-.54,2,2,0,0,0-1.68-.24,4,4,0,0,0-2.16,1.29c-.35.41-.7.78-1,1.19a4.6,4.6,0,0,0-.72,1.73,3.43,3.43,0,0,0,.09,1.8,1,1,0,0,0,.67.74,2.81,2.81,0,0,0,1.52,0,3,3,0,0,0,1.14-.78c.1-.1.22-.17.38-.31a2.17,2.17,0,0,1,0,.38.81.81,0,0,0,.64.74,2.21,2.21,0,0,0,1.68-.23,4.84,4.84,0,0,0,1.3-1c.19-.24.41-.41.6-.61a.54.54,0,0,1,0,.3,1.62,1.62,0,0,0,0,.65,1.3,1.3,0,0,0,1.62.88,3.76,3.76,0,0,0,1.8-1.19,5.1,5.1,0,0,1,.57-.54c0,.27,0,.44,0,.58a1.27,1.27,0,0,0,.95,1.15,1.9,1.9,0,0,0,1.36-.31c.51-.37.95-.81,1.46-1.22a3.05,3.05,0,0,0,.28-.27c-.12.65-.66,1-.6,1.66a10.84,10.84,0,0,0,1.14,0,.85.85,0,0,0,.7-.47c.1-.17.19-.37.29-.54a15.49,15.49,0,0,1,3-4,2.16,2.16,0,0,1,.5-.34v.78a1.18,1.18,0,0,0,1.14,1.26c.42,0,.83,0,1.21-.07,0,.57-.09,1.19-.13,1.76a1.77,1.77,0,0,0,1.65,1.8,2.73,2.73,0,0,1,.7,0,3.69,3.69,0,0,0,2.25-.81,4.58,4.58,0,0,0,1.17-1.23,4.85,4.85,0,0,0,.89-1.79c0-.07.1-.11.16-.21a1.66,1.66,0,0,0,1.55.41c-.6,1.15-1.17,2.24-1.71,3.29.07.07.1.14.13.14.44,0,.89,0,1.3,0a.67.67,0,0,0,.51-.47,17.23,17.23,0,0,1,3.17-4.45,5.24,5.24,0,0,1,.57-.4,8.46,8.46,0,0,0,0,1,1.06,1.06,0,0,0,1,1.06c.45,0,.89,0,1.3,0a10.07,10.07,0,0,1-.19,1,3.11,3.11,0,0,0,.1,1.79,1,1,0,0,0,.66.75,2.68,2.68,0,0,0,1.56-.07,4.22,4.22,0,0,0,1.11-.74c.09-.11.16-.28.38-.21a1.09,1.09,0,0,0,0,.31.74.74,0,0,0,.57.68,2.79,2.79,0,0,0,1.46-.07,5.37,5.37,0,0,0,2-1.56c.26-.31.92-1,1.24-1.39Zm-42.77,1a3.8,3.8,0,0,1-1.78,1.5,1.49,1.49,0,0,1-.63-1.73,6.84,6.84,0,0,1,1.11-2.58,3.33,3.33,0,0,1,1.8-1.6.76.76,0,0,1,1,.78,3.57,3.57,0,0,1-.35,1.39A9.53,9.53,0,0,1,425.17,2971.74Zm24.25-1.83a8.52,8.52,0,0,1-1.17,2.31,3.23,3.23,0,0,1-1.24,1.22,2.15,2.15,0,0,1-.79.1c-.22,0-.38-.41-.38-.78a6.17,6.17,0,0,1,.31-1.66,11.39,11.39,0,0,1,1.31-2.58,2.67,2.67,0,0,1,1.26-1.12c.61-.2,1,0,1,.71v.21h.06A11.82,11.82,0,0,1,449.42,2969.91Zm13.63,1.73c-.12.17-.22.34-.34.51a2.89,2.89,0,0,1-1.56,1.09,1.26,1.26,0,0,1-.63-1.43,6.56,6.56,0,0,1,1.14-2.92,3.1,3.1,0,0,1,1.77-1.52.75.75,0,0,1,1,.78,3.48,3.48,0,0,1-.35,1.39A6.68,6.68,0,0,1,463.05,2971.64Z"/></clipPath><clipPath id="clip-path-16" transform="translate(-408 -2923)"><path class="cls-1" d="M495.89,2969.6a3.13,3.13,0,0,1-.45.38,4.18,4.18,0,0,1-.8.51,1.06,1.06,0,0,1-.74,0,1.42,1.42,0,0,1-.74-1,1.75,1.75,0,0,0-1.65-1.51,4.46,4.46,0,0,0-2.61.47,5.14,5.14,0,0,0-2.25,2,4.4,4.4,0,0,1-1.1,1.31,15,15,0,0,1-1.64,1.15,4.46,4.46,0,0,1-1.61.48,1.47,1.47,0,0,1-1.29-.92.57.57,0,0,1,.13-.57,1.9,1.9,0,0,0,.39-.56H481a2.55,2.55,0,0,1,.39-1.1,5,5,0,0,1,1.12-1.3,2.89,2.89,0,0,1,1.26-.69c.36-.09.61.06.65.39a4.36,4.36,0,0,1-.07.62c-.06.33-.29.63-.1,1a2.16,2.16,0,0,0,.87-.09,1,1,0,0,0,.75-.65,3,3,0,0,0,0-1c0-.06-.07-.12-.13-.15a2.35,2.35,0,0,0-.84-.38,5.34,5.34,0,0,0-2.71.38,7.46,7.46,0,0,0-2,1.46,3,3,0,0,0-.86,3c0,.21,0,.3-.2.39a3.85,3.85,0,0,1-2.48.27,4.25,4.25,0,0,1-2.28-1.22,2.07,2.07,0,0,1,.29-.3c.38-.35.77-.71,1.12-1.09l1.74-1.7a.51.51,0,0,1,.48-.17,1.89,1.89,0,0,0-.09.53.81.81,0,0,0,.84.62.83.83,0,0,0,.77-.65.86.86,0,0,0-.48-.92,1.91,1.91,0,0,0-1.52.15,7,7,0,0,0-1.29,1.07c-.64.65-1.22,1.33-1.83,2-.23.26-.39.23-.58-.06a5,5,0,0,1-.81-1.61,4.19,4.19,0,0,1-.26-1.66l.49-.18c.55-.21,1.06-.35,1.61-.59a2.82,2.82,0,0,0,1.22-.95,1.07,1.07,0,0,0,.16-1.19A1.16,1.16,0,0,0,475,2965a3,3,0,0,0-.9.12,3.6,3.6,0,0,0-2,1.39,5.59,5.59,0,0,0-.9,1.93.42.42,0,0,1-.35.36,5.78,5.78,0,0,0-1.9,1,10.69,10.69,0,0,0-1,1.15,3.68,3.68,0,0,0,.06.57v.53c-.09.77.81,1.54,1.42,1.72a3.61,3.61,0,0,0,2.32-.06,14.07,14.07,0,0,0,1.35-.62,6.86,6.86,0,0,0,6.35.18c.06.06.16.09.19.15a2,2,0,0,0,1.65.53,5.14,5.14,0,0,0,1.48-.24,4.11,4.11,0,0,0,1.29-.56c.57-.39,1.12-.83,1.67-1.28a1.31,1.31,0,0,1,.29-.14v.5a1.28,1.28,0,0,0,.58,1.19,2.07,2.07,0,0,0,1.9.41.66.66,0,0,1,.26,0,3.21,3.21,0,0,0,1.48-.41,8.21,8.21,0,0,0,1.29-.89,5.72,5.72,0,0,0,1.09-1.49,8.1,8.1,0,0,0,.36-.77,1.7,1.7,0,0,0,1,.42,2.18,2.18,0,0,0,1.09-.33c.29-.21.55-.47.84-.71,0,.06,0,0-.1-.06m-22-3.89a1.38,1.38,0,0,1,.38-.21c.39-.11.71.09.71.45a1.83,1.83,0,0,1-.87,1.66,5.7,5.7,0,0,1-1.09.59c-.07,0-.13,0-.23,0a2.84,2.84,0,0,1,1.1-2.52m-1.23,7.39a2.19,2.19,0,0,1-1.93.09,2,2,0,0,1-1-1.16,2.33,2.33,0,0,1,1.19-2.88,1.51,1.51,0,0,1,.36-.08,4.35,4.35,0,0,0,1.61,3.79c-.1.09-.13.21-.23.24m18.56-2.55a8.11,8.11,0,0,1-1.58,2.52,1.49,1.49,0,0,1-1.1.62c-.71,0-.87-.09-.87-.74a3,3,0,0,1,.26-1.27c.23-.45.42-.89.64-1.31a5,5,0,0,1,1.49-1.75,1.83,1.83,0,0,1,.61-.3c.64-.21.93,0,.93.63v.26a3.42,3.42,0,0,1-.38,1.34"/></clipPath><clipPath id="clip-path-18" transform="translate(-408 -2923)"><path class="cls-1" d="M496,2972a1,1,0,1,1-1,1,1,1,0,0,1,1-1"/></clipPath></defs><title>Asset 3</title><g id="Layer_2" data-name="Layer 2"><g id="Layer_1-2" data-name="Layer 1"><g class="cls-3"><g class="cls-4"><rect class="cls-5" x="13" y="4" width="75" height="30"/></g></g><g class="cls-6"><g class="cls-4"><rect class="cls-5" x="2" width="71" height="98"/></g></g><g class="cls-7"><g class="cls-4"><g class="cls-8"><g class="cls-9"><g class="cls-10"><g class="cls-9"><rect class="cls-11" y="6.07" width="102.65" height="96.93"/></g></g></g></g></g></g><g class="cls-12"><g class="cls-4"><rect class="cls-11" x="11" y="58" width="79" height="35"/></g></g><g class="cls-13"><g class="cls-4"><rect class="cls-11" x="25" y="60" width="59" height="28"/></g></g><g class="cls-14"><g class="cls-4"><rect class="cls-5" x="8" y="39" width="57" height="17"/></g></g><g class="cls-15"><g class="cls-4"><rect class="cls-11" x="55" y="37" width="38" height="19"/></g></g><g class="cls-16"><g class="cls-4"><rect class="cls-11" x="82" y="44" width="12" height="12"/></g></g></g></g></svg>