<svg xmlns="http://www.w3.org/2000/svg" xmlns:xlink="http://www.w3.org/1999/xlink" viewBox="0 0 96.51 61.75"><defs><style>.cls-1,.cls-2{fill:none;}.cls-2{clip-rule:evenodd;}.cls-3{clip-path:url(#clip-path);}.cls-4{clip-path:url(#clip-path-2);}.cls-5{isolation:isolate;}.cls-6{clip-path:url(#clip-path-3);}.cls-7{clip-path:url(#clip-path-4);}.cls-8{fill:#aaacaf;}.cls-9{clip-path:url(#clip-path-6);}.cls-10{fill:#231f20;}.cls-11{clip-path:url(#clip-path-8);}.cls-12{clip-path:url(#clip-path-10);}.cls-13{clip-path:url(#clip-path-11);}.cls-14{clip-path:url(#clip-path-13);}.cls-15{clip-path:url(#clip-path-15);}</style><clipPath id="clip-path" transform="translate(-1012 -2944)"><rect class="cls-1" x="1017" y="2982.81" width="78.53" height="17.94"/></clipPath><clipPath id="clip-path-2" transform="translate(-1012 -2944)"><rect class="cls-1" width="1920" height="4120"/></clipPath><clipPath id="clip-path-3" transform="translate(-1012 -2944)"><rect class="cls-1" x="1017" y="2982" width="79" height="19"/></clipPath><clipPath id="clip-path-4" transform="translate(-1012 -2944)"><path class="cls-2" d="M1059.8,3000.75a61.49,61.49,0,0,1-39.15-13.74c-1.06-.85-2.08-1.74-3.1-2.68a1.67,1.67,0,0,1-.51-.67.69.69,0,0,1,.09-.64,1,1,0,0,1,.64-.21,1.88,1.88,0,0,1,.72.34,83.23,83.23,0,0,0,27,10,82.2,82.2,0,0,0,9.63,1.18,85.79,85.79,0,0,0,10.52.13,81.83,81.83,0,0,0,27.48-6.45,6.28,6.28,0,0,1,1.23-.38,1,1,0,0,1,1.15.72,1.63,1.63,0,0,1-.3,1.23,6.23,6.23,0,0,1-1.44,1.15,56.5,56.5,0,0,1-20.15,8.52,55,55,0,0,1-13.82,1.49"/></clipPath><clipPath id="clip-path-6" transform="translate(-1012 -2944)"><path class="cls-2" d="M1061.19,2955.28c-.72,3-1.39,5.81-2.07,8.61-.77,3.23-1.53,6.49-2.34,9.71-.33,1.32-.63,1.57-2,1.57h-2c-1.15,0-1.49-.25-1.83-1.35-.68-2.25-1.36-4.46-2-6.7l-4.7-15.53c-.51-1.69-.38-1.86,1.36-1.86H1047c1.48,0,1.78.21,2.12,1.65s.81,3.1,1.19,4.62c1.1,4.37,2.2,8.78,3.35,13.15a1.15,1.15,0,0,0,.34.64c.34-1.49.72-2.93,1.06-4.41q1.65-7.07,3.31-14.13c.29-1.31.59-1.52,2-1.57h2c1.19.05,1.44.26,1.74,1.4.43,1.78.85,3.57,1.27,5.35,1.06,4.41,2.08,8.86,3.14,13.27a3.69,3.69,0,0,1,.13.51c.13-.42.21-.64.3-.89,1.52-5.9,3-11.79,4.58-17.73.08-.3.12-.55.21-.85a1.39,1.39,0,0,1,1.48-1.1H1078c.59,0,.8.34.76.89a6.59,6.59,0,0,1-.21.85c-2.33,7.38-4.62,14.76-7,22.18-.42,1.36-.68,1.53-2.07,1.53h-2.08c-1.11,0-1.44-.34-1.7-1.36-.51-2-1-4-1.44-6.06-.93-4-1.91-7.89-2.89-11.79.05-.09,0-.22-.17-.6"/></clipPath><clipPath id="clip-path-8" transform="translate(-1012 -2944)"><rect class="cls-1" x="1020.44" y="2949" width="22.2" height="26.92"/></clipPath><clipPath id="clip-path-10" transform="translate(-1012 -2944)"><rect class="cls-1" x="1020" y="2949" width="23" height="27"/></clipPath><clipPath id="clip-path-11" transform="translate(-1012 -2944)"><path class="cls-2" d="M1036.55,2961a32.44,32.44,0,0,0-.29-4.19c-.43-2.46-1.91-3.57-4.5-3.78a17,17,0,0,0-7.67,1.36c-1.74.72-1.83.59-2-1.27a2.23,2.23,0,0,1,1.7-2.51,17.93,17.93,0,0,1,11.11-1.14,7.33,7.33,0,0,1,6.11,7.29c.13,3.48.13,7,.13,10.48a10,10,0,0,0,1.19,5.09c.46.8.33,1.14-.43,1.65-.51.34-1,.68-1.48,1a1.27,1.27,0,0,1-2-.3c-.46-.59-.8-1.23-1.23-1.82a7.82,7.82,0,0,1-.42-.81c-.72.64-1.36,1.27-2.08,1.82a10.29,10.29,0,0,1-9.16,1.7c-3.82-1.06-5.43-4.45-5.09-8.14.42-4.37,3.94-6.53,7.38-7a21.84,21.84,0,0,1,7.76.51,2.26,2.26,0,0,0,.51.08,2.57,2.57,0,0,0,.42,0m-.08,3.23a18.56,18.56,0,0,0-7.3-.47c-3.05.51-4.24,2.76-3.56,5.77a3,3,0,0,0,2.46,2.42,7.42,7.42,0,0,0,6.41-1.45c2-1.61,2.07-3.9,2-6.27"/></clipPath><clipPath id="clip-path-13" transform="translate(-1012 -2944)"><path class="cls-2" d="M1089.48,2975.94a19,19,0,0,1-7.16-1.45,2.89,2.89,0,0,1-1.45-3.73c.22-.46.56-.46.94-.34s1,.39,1.48.6a14.91,14.91,0,0,0,8.7.8c2-.46,3-1.69,3-3.39a2.6,2.6,0,0,0-1.23-2.38,17.66,17.66,0,0,0-2.8-1.27c-1.49-.55-3-.93-4.54-1.48a7.45,7.45,0,0,1-4.88-4.41A6.75,6.75,0,0,1,1084,2951a10.54,10.54,0,0,1,7.59-1.87,25,25,0,0,1,5,1.1,2.63,2.63,0,0,1,1.61,3.65c-.21.55-.59.51-1.06.34a32,32,0,0,0-3.48-1.1,10.89,10.89,0,0,0-5.38.08c-2,.55-3,2.17-2.38,4a2.76,2.76,0,0,0,1.61,1.74c1.4.59,2.8,1.05,4.2,1.56,1.15.43,2.33.72,3.44,1.19,2.58,1.06,4.28,2.89,4.49,5.77a7.05,7.05,0,0,1-3.35,6.74,11.84,11.84,0,0,1-6.83,1.83"/></clipPath><clipPath id="clip-path-15" transform="translate(-1012 -2944)"><path class="cls-2" d="M1094.49,2984.59c-1.87.17-4,.42-6.19.59a2.36,2.36,0,0,1-.89-.21,2.31,2.31,0,0,1,.42-.81A12.79,12.79,0,0,1,1093,2982a19.51,19.51,0,0,1,8.7,0c1.57.38,1.91.64,1.78,2.5a18.66,18.66,0,0,1-4,10.73,10.76,10.76,0,0,1-1.74,1.7c-.21.17-.55.13-.85.21a3.09,3.09,0,0,1,0-.85c.77-2.33,1.61-4.66,2.38-7a9.91,9.91,0,0,0,.34-1.91c.17-1.52-.56-2.37-2.25-2.54-.81-.09-1.66-.13-2.8-.21"/></clipPath></defs><title>Asset 6</title><g id="Layer_2" data-name="Layer 2"><g id="Layer_1-2" data-name="Layer 1"><g class="cls-3"><g class="cls-4"><g class="cls-5"><g class="cls-6"><g class="cls-7"><g class="cls-6"><rect class="cls-8" y="33.81" width="88.53" height="27.94"/></g></g></g></g></g></g><g class="cls-9"><g class="cls-4"><rect class="cls-10" x="26.93" y="0.64" width="44.79" height="35.53"/></g></g><g class="cls-11"><g class="cls-4"><g class="cls-5"><g class="cls-12"><g class="cls-13"><g class="cls-12"><rect class="cls-10" x="3.44" width="32.2" height="36.92"/></g></g></g></g></g></g><g class="cls-14"><g class="cls-4"><rect class="cls-10" x="63.65" y="0.02" width="29.04" height="36.93"/></g></g><g class="cls-15"><g class="cls-4"><rect class="cls-8" x="70.41" y="32.51" width="26.1" height="25.64"/></g></g></g></g></svg>