<svg xmlns="http://www.w3.org/2000/svg" xmlns:xlink="http://www.w3.org/1999/xlink" viewBox="0 0 82.1 83.98"><defs><style>.cls-1,.cls-2{fill:none;}.cls-1{clip-rule:evenodd;}.cls-3{clip-path:url(#clip-path);}.cls-4{clip-path:url(#clip-path-2);}.cls-5{fill:#bfc1c3;}.cls-6{clip-path:url(#clip-path-3);}.cls-7{fill:#e0e1e2;}.cls-8{clip-path:url(#clip-path-5);}.cls-9{fill:#d5d6d7;}.cls-10{clip-path:url(#clip-path-7);}.cls-11{clip-path:url(#clip-path-9);}.cls-12{fill:#dedfe1;}.cls-13{clip-path:url(#clip-path-11);}.cls-14{clip-path:url(#clip-path-13);}.cls-15{clip-path:url(#clip-path-15);}.cls-16{fill:#2d2a2b;}.cls-17{clip-path:url(#clip-path-17);}.cls-18{clip-path:url(#clip-path-19);}.cls-19{clip-path:url(#clip-path-21);}.cls-20{clip-path:url(#clip-path-23);}.cls-21{isolation:isolate;}.cls-22{clip-path:url(#clip-path-25);}.cls-23{clip-path:url(#clip-path-26);}.cls-24{clip-path:url(#clip-path-28);}.cls-25{clip-path:url(#clip-path-30);}.cls-26{clip-path:url(#clip-path-32);}.cls-27{clip-path:url(#clip-path-34);}.cls-28{clip-path:url(#clip-path-36);}.cls-29{clip-path:url(#clip-path-38);}</style><clipPath id="clip-path" transform="translate(-836 -2933)"><polygon class="cls-1" points="865 2961.24 867.95 2965.73 871.26 2967.15 874.65 2964.75 875.86 2965.86 879.32 2968.91 878.57 2970.09 873.64 2970.25 871.35 2974.02 867.77 2973.76 860.14 2963.18 862.36 2959.81 865 2959.2 865 2961.24"/></clipPath><clipPath id="clip-path-2" transform="translate(-836 -2933)"><rect class="cls-2" width="1920" height="4120"/></clipPath><clipPath id="clip-path-3" transform="translate(-836 -2933)"><polygon class="cls-1" points="872.81 2946.52 876.81 2948.45 879.32 2952.54 878.89 2957.54 876.81 2957.54 874.19 2955.77 870.73 2955.23 866.98 2956.06 865 2957.54 863.49 2954.62 864.53 2950.22 866.43 2947.76 870.31 2945.92 872.81 2946.52"/></clipPath><clipPath id="clip-path-5" transform="translate(-836 -2933)"><polygon class="cls-1" points="889.45 2959.85 889.45 2968.09 882.58 2967.15 882.58 2970.55 879.32 2968.91 875.65 2963.78 877.66 2959.2 889.45 2959.85"/></clipPath><clipPath id="clip-path-7" transform="translate(-836 -2933)"><polygon class="cls-1" points="860.14 2964.01 863.8 2966.61 869.89 2974.87 866.98 2975.43 864.18 2976.71 862.72 2979.58 862.36 2981.26 859.72 2980.88 860.14 2964.01"/></clipPath><clipPath id="clip-path-9" transform="translate(-836 -2933)"><path class="cls-1" d="M863.56,2984.37c-.32,0-.59,0-.86,0a7.85,7.85,0,0,0-3.76,1.05,4.37,4.37,0,0,0-1.22,6.94,6.61,6.61,0,0,0,5.29,2.11h26.67c2.06,0,4.2-.42,4.75-1,2.85-1.51,2.77-4.88.55-7.19a6.43,6.43,0,0,0-4.62-2c-1.36,0-2.67,0-4.12,0a7.51,7.51,0,0,0,.23-6.23,7.94,7.94,0,0,0-4.76-4.41,8.07,8.07,0,0,0-5.38-.13,8,8,0,0,0-5.35,4.71c-3.66-1.64-8.69.89-7.42,6.06"/></clipPath><clipPath id="clip-path-11" transform="translate(-836 -2933)"><polygon class="cls-1" points="900.77 2944.83 900.77 2950.76 899.38 2953.43 895.79 2953.43 894.22 2952.92 893.68 2957.54 893.68 2958.23 893.23 2959.92 892.35 2960.47 890.99 2961.93 890.99 2964.75 891.91 2966.24 893.6 2967.78 893.23 2973.2 893.76 2982.81 889.45 2980.88 889.45 2946.6 892.35 2943.9 894.53 2942.29 899.3 2943.58 900.77 2944.83"/></clipPath><clipPath id="clip-path-13" transform="translate(-836 -2933)"><polygon class="cls-1" points="894.07 2959.2 896.3 2961.08 896.3 2964.88 895.79 2966.81 891.91 2966.24 890.99 2964.75 891.47 2959.62 893.23 2959.2 894.07 2959.2"/></clipPath><clipPath id="clip-path-15" transform="translate(-836 -2933)"><path class="cls-1" d="M879.6,2958h8c.51,0,.65-.14.65-.65,0-3,0-6.1,0-9.15a6.77,6.77,0,0,1,4.53-6.51c2.26-.83,6.05-.56,8,1.85a7.63,7.63,0,0,1,.79,8.27,6.12,6.12,0,0,1-4.39,2.86,10.09,10.09,0,0,1-1.76.19c-.46,0-.64.14-.64.65,0,.73,0,1.47,0,2.21a.81.81,0,0,0,.42.56,3,3,0,0,1,2.31,2.86,24.28,24.28,0,0,1-.14,4.44,3.3,3.3,0,0,1-2.22,2.68.7.7,0,0,0-.37.56c0,4.15,0,8.36,0,12.52a1.16,1.16,0,0,0,.51.74,7.94,7.94,0,0,1,4.25,5.59c.6,3.33-.78,5.87-3.42,7.76a9.11,9.11,0,0,1-5.41,1.67c-9.24,0-18.48,0-27.72,0a8.71,8.71,0,0,1-7.86-4.25,7.28,7.28,0,0,1,1.76-9.62,6.38,6.38,0,0,1,1.38-.92,1,1,0,0,0,.56-1c0-5.18-.05-10.31,0-15.48a8.68,8.68,0,0,1,3.83-7.35.77.77,0,0,0,.33-1.06,9.59,9.59,0,0,1,2.86-10.72,9,9,0,0,1,10.4-.51c3.74,2.49,5,7,3.6,11.27C879.74,2957.54,879.69,2957.68,879.6,2958Zm-15.9,25.37c-.32,0-.6.05-.88.05a7.52,7.52,0,0,0-3.83,1.15,5,5,0,0,0-1.25,7.63,6.54,6.54,0,0,0,5.41,2.31h27.21a7.87,7.87,0,0,0,4.07-1.07,5.06,5.06,0,0,0,1.34-7.9,6.38,6.38,0,0,0-4.71-2.17c-1.39,0-2.73,0-4.21,0a8.75,8.75,0,0,0,.23-6.84,8.35,8.35,0,0,0-4.85-4.85,7.78,7.78,0,0,0-5.5-.14,8.35,8.35,0,0,0-5.45,5.18C867.54,2974.91,862.41,2977.69,863.7,2983.37Zm13.54-26.8a7,7,0,0,0-2-8,6.36,6.36,0,0,0-8.64.7c-1.62,1.75-2.35,6-1.2,7.3C870,2953.52,872.3,2953.52,877.24,2956.57Zm10.72,10c.09-.14.14-.14.14-.19,0-1.8,0-3.6,0-5.41,0-.13-.32-.41-.51-.41H878.4c-.37,0-.7.09-.79.46-.18.69-.41,1.39-.55,2.08a.7.7,0,0,0,.18.6c1.11,1.57,2.17,3.1,3.33,4.62.14.19.41.28.83.56v-1.76a1.34,1.34,0,0,1,1.8-1.48c.6.14,1.25.23,1.85.37C886,2966.23,887,2966.41,888,2966.6Zm7.72-17.8a1,1,0,0,0-1.57.28,2.39,2.39,0,0,0,1.34,3.19,3.05,3.05,0,0,0,2.86-.55c2.59-1.85,1.94-6.66-.83-7.72-3.37-1.3-6.93.46-6.93,4.25v10.35c0,.19.05.37.05.6a11.29,11.29,0,0,1,1.1-.69.93.93,0,0,0,.61-1c0-1.25,0-2.5,0-3.74a16.32,16.32,0,0,0-.32-1.85,8.67,8.67,0,0,1-.37-1.85c-.05-2.22.92-3.79,3.19-4.07a2.8,2.8,0,0,1,2.91,1.3,2.5,2.5,0,0,1,0,2.86,1.14,1.14,0,0,1-1.53.46,1.19,1.19,0,0,1-.69-1.34A1.74,1.74,0,0,0,895.68,2948.8Zm-19.83,17.06c-.32.41-.55.78-.78,1.11a4.65,4.65,0,0,1-6.75.78,8.22,8.22,0,0,1-2.31-3.28c-.41-1.06-.69-2.12-1-3.23-.23-.83-.64-1-1.29-.42a13.72,13.72,0,0,0-1.34,1.53c-.37.41-.28.78.09,1.2,2.17,2.68,4.3,5.36,6.47,8,.47.6,1,1.16,1.34,1.62a30.94,30.94,0,0,1,3.38-2.91,26.79,26.79,0,0,1,4-1.81C877.1,2967.66,876.5,2966.78,875.85,2965.86Zm-8.87-5.92a10.53,10.53,0,0,0,2.22,5.5c1.34,1.57,3.1,1.57,4.34-.05a10.54,10.54,0,0,0,2.08-4.66c.1-.56,0-.74-.55-.74a4.25,4.25,0,0,1-2.68-.79c-.37-.27-.65-.6-1.06-1C870.26,2959.9,868.65,2959.9,867,2959.94Zm-5.68,19.64a7,7,0,0,1,6.47-5.82c-2.17-2.68-4.25-5.27-6.33-7.86-.05,0-.1,0-.14.1Zm29.3-12.43v.37c0,4.16,0,8.32,0,12.48,0,.64.23.83.78.83a1.21,1.21,0,0,1,.42.05c.41,0,.55-.1.55-.51v-11.79a.91.91,0,0,0-.28-.55C891.61,2967.71,891.1,2967.43,890.6,2967.15Zm4.39-5.78c0-.5-.33-.73-.88-.73a2.54,2.54,0,0,0-.23,5.08c.46,0,.78-.09.88-.56Zm-6.8,11.83v-3.6c0-.14-.28-.37-.51-.42-1-.23-2-.41-3-.64-.78-.14-.92-.05-.83.74a1.53,1.53,0,0,0,.37.55,12.74,12.74,0,0,1,1.29.88C886.44,2971.49,887.27,2972.33,888.19,2973.2Zm-12-15.34a6.33,6.33,0,0,0-4-1.8C872.16,2958,874.65,2958.46,876.18,2957.86Zm-9.75,0c1.71.6,4.11,0,4-1.85A6.41,6.41,0,0,0,866.43,2957.91Z"/></clipPath><clipPath id="clip-path-17" transform="translate(-836 -2933)"><path class="cls-1" d="M887.27,3006c0-1,.05-1.9,0-2.87,0-.64.23-.87.83-.78a3.76,3.76,0,0,0,1.06,0c.56-.05.7.23.7.69v5.82c0,.6.18.79.78.79,1.3,0,1.76-.42,1.76-1.76v-4.53c0-1,0-1,1-1h.47c1.06,0,1.11,0,1.11,1.11v4.62a3.63,3.63,0,0,1-4,3.88c-.78-.09-1.52-.28-2.31-.37a.92.92,0,0,0-.6.09c-1.34.51-3.93.56-5.13-.88a3.42,3.42,0,0,1-.92-2.26V3003c0-.46.18-.64.64-.64,2.31,0,1.94-.33,2,1.94v3.79a1.59,1.59,0,0,0,2.31,1.48c.14-.05.23-.37.23-.56,0-1,0-2,0-3"/></clipPath><clipPath id="clip-path-19" transform="translate(-836 -2933)"><path class="cls-1" d="M864.39,3006v-2.91c0-.51.14-.74.7-.74,2.31,0,1.89-.28,1.94,1.85v4.76c0,.5.18.69.69.69,1.34,0,1.8-.42,1.8-1.76v-4.76c0-.55.19-.83.79-.78,2.08,0,1.8-.33,1.85,1.75v4.12a3.55,3.55,0,0,1-3.7,3.69,5,5,0,0,1-2.49-.37c-.14-.09-.42,0-.61.1-1.57.41-3.09.6-4.52-.42a3.19,3.19,0,0,1-1.48-2.54c-.05-1.94,0-3.84-.05-5.78a.52.52,0,0,1,.6-.6,11.28,11.28,0,0,0,1.3,0c.55,0,.69.23.69.74v5a1.59,1.59,0,0,0,2.31,1.48c.14-.05.23-.37.28-.56a29.57,29.57,0,0,1-.1-3"/></clipPath><clipPath id="clip-path-21" transform="translate(-836 -2933)"><path class="cls-1" d="M907.51,3002.13a22.64,22.64,0,0,1,2.59.19,3.24,3.24,0,0,1,2.86,2.91,17.65,17.65,0,0,1,.09,3.56,3.6,3.6,0,0,1-3.55,3.05,26.45,26.45,0,0,1-3.66-.23c-.64-.05-1-.37-.92-1.11.05-3.52.05-7.07,0-10.59,0-.69.19-.92.88-.87,2,0,1.71-.23,1.71,1.75,0,.46,0,.93,0,1.34m3.09,5h0v-.83c-.09-1.62-.83-2.22-2.45-2-.37,0-.56.13-.56.55v4.34a.66.66,0,0,0,.24.51,1.82,1.82,0,0,0,2.63-1.15c.09-.47.09-.93.18-1.39"/></clipPath><clipPath id="clip-path-23" transform="translate(-836 -2933)"><rect class="cls-2" x="841" y="2999.08" width="8.26" height="12.79"/></clipPath><clipPath id="clip-path-25" transform="translate(-836 -2933)"><rect class="cls-2" x="841" y="2999" width="9" height="13"/></clipPath><clipPath id="clip-path-26" transform="translate(-836 -2933)"><path class="cls-1" d="M846.65,3002.27v-2.4c0-.55.14-.83.78-.79,2.13.05,1.81-.23,1.81,1.81v9.7a.92.92,0,0,1-.93,1.06,23.2,23.2,0,0,1-4,.19,3.64,3.64,0,0,1-3.33-3.61,20.48,20.48,0,0,1,0-2.35c.28-2.64,1.66-3.7,4.39-3.7.41,0,.74.05,1.2.09m0,4.81c0-.7.05-1.39,0-2.08,0-.19,0-.51-.19-.6a1.87,1.87,0,0,0-2.63,1.11,15.63,15.63,0,0,0,0,3.28,1.29,1.29,0,0,0,1.34,1.11c.28,0,.6-.05.88-.05.46,0,.65-.18.65-.65-.05-.74-.05-1.43-.05-2.12"/></clipPath><clipPath id="clip-path-28" transform="translate(-836 -2933)"><path class="cls-1" d="M881.22,3007.08v3.65c0,.23-.14.6-.33.65a8.44,8.44,0,0,1-6-.05,3.19,3.19,0,0,1-1.72-2.17,9.28,9.28,0,0,1,.1-4.35,3.45,3.45,0,0,1,3.32-2.63,8.88,8.88,0,0,1,4.12.51,1.1,1.1,0,0,1,.51.74c0,1.24,0,2.45,0,3.65m-2.69,0h0c0-.74.05-1.44,0-2.17,0-.19-.13-.47-.27-.51a1.87,1.87,0,0,0-2.68,1.61,15.86,15.86,0,0,0,0,2.18,1.79,1.79,0,0,0,2.68,1.61c.14,0,.23-.32.23-.46a19.09,19.09,0,0,0,0-2.26"/></clipPath><clipPath id="clip-path-30" transform="translate(-836 -2933)"><path class="cls-1" d="M855.38,3007.82h-2.17c-.51,0-.6.23-.51.64a1.59,1.59,0,0,0,1.67,1.3c.92,0,1.85-.05,2.77,0,.28,0,.74.14.83.32.23.6-.05,1.43-.51,1.48-1.8.23-3.65.79-5.4-.28a3.66,3.66,0,0,1-1.9-3,22.38,22.38,0,0,1,0-2.59,3.74,3.74,0,0,1,3.19-3.51,4.05,4.05,0,0,1,5,4.2c0,1.39,0,1.39-1.43,1.39A15.14,15.14,0,0,1,855.38,3007.82Zm-1.11-1.57h1c.51,0,.65-.19.55-.65a1.71,1.71,0,0,0-1.52-1.39,1.61,1.61,0,0,0-1.53,1.2c-.18.65-.09.84.65.84Z"/></clipPath><clipPath id="clip-path-32" transform="translate(-836 -2933)"><path class="cls-1" d="M898.5,3007.82c-.14,1.11.32,1.85,1.38,1.94s2,0,3,0c.28,0,.79.14.79.27,0,.47.28,1.07-.28,1.44a1,1,0,0,1-.51.18,29.41,29.41,0,0,1-3.51.23,3.67,3.67,0,0,1-3.37-2.77,8,8,0,0,1,.18-4.67,4.07,4.07,0,0,1,4.58-2.21,3.85,3.85,0,0,1,3.23,3.46c.05.46,0,1,.05,1.43s-.23.74-.74.74h-3.88A7.87,7.87,0,0,0,898.5,3007.82Zm3-1.62a1.66,1.66,0,0,0-.83-1.76,1.34,1.34,0,0,0-1.53,0,1.63,1.63,0,0,0-.69,1.71Z"/></clipPath><clipPath id="clip-path-34" transform="translate(-836 -2933)"><path class="cls-1" d="M874.65,2952.22a1.18,1.18,0,0,1-1.11,1.21,1.23,1.23,0,0,1-1.24-1.16,1.18,1.18,0,1,1,2.35-.05"/></clipPath><clipPath id="clip-path-36" transform="translate(-836 -2933)"><path class="cls-1" d="M870.31,2952.22a1.18,1.18,0,1,1-2.36.05,1.29,1.29,0,0,1,1.16-1.2,1.22,1.22,0,0,1,1.2,1.15"/></clipPath><clipPath id="clip-path-38" transform="translate(-836 -2933)"><path class="cls-1" d="M871.26,2938c-4.92,0-8.9,1.1-8.9,2.46s4,2.46,8.9,2.46,8.89-1.1,8.89-2.46-4-2.46-8.89-2.46m.12,3.2c-3.53,0-6.39-.33-6.39-.74s2.86-.74,6.39-.74,6.38.33,6.38.74-2.86.74-6.38.74"/></clipPath></defs><title>Asset 5</title><g id="Layer_2" data-name="Layer 2"><g id="Layer_1-2" data-name="Layer 1"><g class="cls-3"><g class="cls-4"><rect class="cls-5" x="19.14" y="21.21" width="29.18" height="24.81"/></g></g><g class="cls-6"><g class="cls-4"><rect class="cls-7" x="22.49" y="7.92" width="25.83" height="21.62"/></g></g><g class="cls-8"><g class="cls-4"><rect class="cls-9" x="34.66" y="21.2" width="23.79" height="21.35"/></g></g><g class="cls-10"><g class="cls-4"><rect class="cls-9" x="18.72" y="26.01" width="20.17" height="27.25"/></g></g><g class="cls-11"><g class="cls-4"><rect class="cls-12" x="15.5" y="35.21" width="50.12" height="31.3"/></g></g><g class="cls-13"><g class="cls-4"><rect class="cls-5" x="48.45" y="4.29" width="21.32" height="50.52"/></g></g><g class="cls-14"><g class="cls-4"><rect class="cls-7" x="49.99" y="21.2" width="15.31" height="17.61"/></g></g><g class="cls-15"><g class="cls-4"><rect class="cls-16" x="13.05" y="3.27" width="58.37" height="65.85"/></g></g><g class="cls-17"><g class="cls-4"><rect class="cls-16" x="41.05" y="64.31" width="22.94" height="19.68"/></g></g><g class="cls-18"><g class="cls-4"><rect class="cls-16" x="18.31" y="64.27" width="22.85" height="19.67"/></g></g><g class="cls-19"><g class="cls-4"><rect class="cls-16" x="63.92" y="61.04" width="18.19" height="22.81"/></g></g><g class="cls-20"><g class="cls-4"><g class="cls-21"><g class="cls-22"><g class="cls-23"><g class="cls-22"><rect class="cls-16" y="61.08" width="18.26" height="22.79"/></g></g></g></g></g></g><g class="cls-24"><g class="cls-4"><rect class="cls-16" x="31.96" y="64.12" width="18.28" height="19.8"/></g></g><g class="cls-25"><g class="cls-4"><rect class="cls-16" x="9.13" y="64.11" width="18.21" height="19.81"/></g></g><g class="cls-26"><g class="cls-4"><rect class="cls-16" x="54.79" y="64.16" width="18.3" height="19.73"/></g></g><g class="cls-27"><g class="cls-4"><rect class="cls-16" x="31.3" y="13.07" width="12.36" height="12.36"/></g></g><g class="cls-28"><g class="cls-4"><rect class="cls-16" x="26.95" y="13.08" width="12.36" height="12.36"/></g></g><g class="cls-29"><g class="cls-4"><rect class="cls-16" x="21.36" width="27.79" height="14.92"/></g></g></g></g></svg>