<svg xmlns="http://www.w3.org/2000/svg" xmlns:xlink="http://www.w3.org/1999/xlink" viewBox="0 0 122.06 28.71"><defs><style>.cls-1,.cls-2{fill:none;}.cls-1{clip-rule:evenodd;}.cls-3{clip-path:url(#clip-path);}.cls-4{clip-path:url(#clip-path-2);}.cls-5{fill:#231f20;}.cls-6{clip-path:url(#clip-path-3);}.cls-7{clip-path:url(#clip-path-5);}.cls-8{clip-path:url(#clip-path-7);}.cls-9{clip-path:url(#clip-path-9);}.cls-10{clip-path:url(#clip-path-11);}.cls-11{clip-path:url(#clip-path-13);}.cls-12{isolation:isolate;}.cls-13{clip-path:url(#clip-path-15);}.cls-14{clip-path:url(#clip-path-16);}.cls-15{clip-path:url(#clip-path-18);}.cls-16{clip-path:url(#clip-path-20);}.cls-17{clip-path:url(#clip-path-22);}.cls-18{clip-path:url(#clip-path-23);}</style><clipPath id="clip-path" transform="translate(-1204 -2960.29)"><path class="cls-1" d="M1278.8,2982.54h-4.48c.12-.72.23-1.42.36-2.25a7.07,7.07,0,0,1-3.07,2.14,9.47,9.47,0,0,1-5.55.28,5,5,0,0,1-3.94-6.18A8.29,8.29,0,0,1,1271,2970c1.27.13,2.43.54,2.88,1.85a3.82,3.82,0,0,1-.82,4.05,5.49,5.49,0,0,1-4,1.57c-.75,0-1.51,0-2.28,0A2.17,2.17,0,0,0,1269,2980a7.93,7.93,0,0,0,5.3-1.5c.3-.2.65-.32,1-.5a.29.29,0,0,0,.13-.19c.43-1.61.9-3.22,1.25-4.85a8.33,8.33,0,0,0-.1-2,4.15,4.15,0,0,1,3.84-.46,1.18,1.18,0,0,1,.73,1.12c0,.39-.06.78-.1,1.25a14.51,14.51,0,0,1,.93-1.25,6.88,6.88,0,0,1,1.33-1.2,3.18,3.18,0,0,1,1.39-.39,1.15,1.15,0,0,1,1.37,1.19,4,4,0,0,1-1.58,3.36,1.72,1.72,0,0,0-2.06-.69,3.3,3.3,0,0,0-1.19.9,8.2,8.2,0,0,0-1.59,3.5c-.29,1.22-.47,2.46-.7,3.7,0,.17,0,.34-.07.54m-11.76-6.87a5.34,5.34,0,0,0,2.6-.21,2,2,0,0,0,1.32-1.39,1.21,1.21,0,0,0-.28-1.3,1.29,1.29,0,0,0-1.3-.18,3.88,3.88,0,0,0-2.34,3.08"/></clipPath><clipPath id="clip-path-2" transform="translate(-1204 -2960.29)"><rect class="cls-2" width="1920" height="4120"/></clipPath><clipPath id="clip-path-3" transform="translate(-1204 -2960.29)"><path class="cls-1" d="M1209,2983c.22-1.13.39-2.23.66-3.3.8-3.24,1.65-6.46,2.46-9.7a3.73,3.73,0,0,0-.19-3.11,6.88,6.88,0,0,1,2.78-.75,49.91,49.91,0,0,1,5.33-.11,6.15,6.15,0,0,1,4,1.58,3.39,3.39,0,0,1,.87,3.27,6.28,6.28,0,0,1-3.27,4.46,14,14,0,0,1-5.78,1.86c-.57.07-.9.28-1,.81-.28,1.43-.54,2.86-.8,4.29,0,.23-.06.46-.09.7Zm8.3-14.3c-.52,2-1,3.86-1.5,5.73-.11.4,0,.55.4.49a4.53,4.53,0,0,0,1.28-.31,4.8,4.8,0,0,0,2.62-4.23,1.33,1.33,0,0,0-1.14-1.5A14.79,14.79,0,0,0,1217.3,2968.7Z"/></clipPath><clipPath id="clip-path-5" transform="translate(-1204 -2960.29)"><path class="cls-1" d="M1239.23,2980.93a2.89,2.89,0,0,1-2.56,2,6.74,6.74,0,0,1-1.27,0,1.76,1.76,0,0,1-1.79-1.91,17.33,17.33,0,0,1,.61-3.18,24.38,24.38,0,0,0,1.18-4.89,2.61,2.61,0,0,0-.31-1.77,4.39,4.39,0,0,1-1.64,3.32l-.12,0a2,2,0,0,0-3.17.13,9.84,9.84,0,0,0-1.9,4.28c-.28,1.19-.45,2.41-.68,3.64H1223c.24-1.13.43-2.23.72-3.32.51-1.94,1.1-3.85,1.6-5.79a3.38,3.38,0,0,0-.18-2.41,4.29,4.29,0,0,1,2.93-.81c.1,0,.2,0,.3,0,1.28.15,1.81.84,1.57,2.05l-.11.55c.52-.64.92-1.2,1.4-1.71a3.1,3.1,0,0,1,2.26-1.16,1.32,1.32,0,0,1,1.53,1,4.83,4.83,0,0,1,3.28-.71,1.8,1.8,0,0,1,1.7,1.85,16.18,16.18,0,0,1-.8,4.18c-.28,1.09-.53,2.19-.73,3.3-.14.76.07,1.05.76,1.31"/></clipPath><clipPath id="clip-path-7" transform="translate(-1204 -2960.29)"><path class="cls-1" d="M1245.94,2972.17c.79-.57,1.55-1.2,2.39-1.71a3.94,3.94,0,0,1,2.42-.44,2.34,2.34,0,0,1,2.25,2.41,12.81,12.81,0,0,1-.42,2.66c-.31,1.42-.67,2.83-1,4.24a2.37,2.37,0,0,0,0,.53c0,.69.11.85.76,1.07a2.87,2.87,0,0,1-2.51,2.05,5.67,5.67,0,0,1-1.54-.07,1.64,1.64,0,0,1-1.5-1.73,9.16,9.16,0,0,1,.34-2.19c.28-1.16.66-2.3,1-3.45a4,4,0,0,0,0-1.2.5.5,0,0,0-.74-.47,3.35,3.35,0,0,0-1.14.72,7.62,7.62,0,0,0-1.71,3.46c-.37,1.48-.65,3-1,4.53H1239c.43-1.8.82-3.54,1.25-5.28.33-1.32.73-2.62,1-3.93a3.3,3.3,0,0,0-.06-2.15.39.39,0,0,1,.16-.33,4.4,4.4,0,0,1,3.74-.41,1.24,1.24,0,0,1,.81,1.32c0,.16,0,.31,0,.37"/></clipPath><clipPath id="clip-path-9" transform="translate(-1204 -2960.29)"><path class="cls-1" d="M1299.31,2971.84a3.68,3.68,0,0,1,3.77-.54,1.71,1.71,0,0,1,.88,1.54,16,16,0,0,1-.74,4.29c-.2.8-.41,1.59-.54,2.39s.35,1.1,1,.72a3.38,3.38,0,0,0,1.08-1.08,13,13,0,0,0,1.6-4.5c.23-1.1.37-2.22.56-3.39H1311c-.12,1-.16,1.91-.35,2.83-.41,2-.89,3.92-1.33,5.89a4.58,4.58,0,0,0-.08.83c0,.65.14.83.73,1a2.73,2.73,0,0,1-2.37,2.1,6.88,6.88,0,0,1-1.2,0,1.78,1.78,0,0,1-1.74-1.62c0-.13,0-.28-.08-.53l-.39.44a4.32,4.32,0,0,1-4.19,1.7,2.19,2.19,0,0,1-2-2.75c.34-2.09.88-4.16,1.32-6.24.12-.59.23-1.19.32-1.79a1.3,1.3,0,0,0-.37-1.33"/></clipPath><clipPath id="clip-path-11" transform="translate(-1204 -2960.29)"><path class="cls-1" d="M1297,2975c-.14,3-1.24,5.57-4.06,7.07a6.57,6.57,0,0,1-6.29.25,5,5,0,0,1-2.58-5.38,8.08,8.08,0,0,1,6.46-6.79,10.34,10.34,0,0,1,1.85-.14c.57,0,.73.32.46.83-.06.12-.13.22-.18.34a.57.57,0,0,0,.57.85c.32,0,.64-.08,1-.1a2.42,2.42,0,0,1,2.8,2.49v.58m-8.35,2.52a8.18,8.18,0,0,0,.45,1.37,1.47,1.47,0,0,0,1.7.84,2.13,2.13,0,0,0,1.34-.9,5.93,5.93,0,0,0,.91-2.57.55.55,0,0,0-.17-.4,2.05,2.05,0,0,1-.48-2.7c.24-.46.1-.64-.43-.66a2.46,2.46,0,0,0-2.14,1.15,7,7,0,0,0-1.18,3.87"/></clipPath><clipPath id="clip-path-13" transform="translate(-1204 -2960.29)"><rect class="cls-2" x="1310.44" y="2970.24" width="10.62" height="13.74"/></clipPath><clipPath id="clip-path-15" transform="translate(-1204 -2960.29)"><rect class="cls-2" x="1310" y="2970" width="12" height="14"/></clipPath><clipPath id="clip-path-16" transform="translate(-1204 -2960.29)"><path class="cls-1" d="M1318.65,2970.24a3.19,3.19,0,0,0-.33,2.33,8.54,8.54,0,0,0,.84,1.58c.26.43.61.79.89,1.2a5.1,5.1,0,0,1-1.06,7.17,7.44,7.44,0,0,1-6.83,1.08,2.48,2.48,0,0,1-1.68-2.84,2.17,2.17,0,0,1,2.18-1.68c.08,0,.22.24.27.39a1.74,1.74,0,0,0,2.39,1.18,1.41,1.41,0,0,0,.61-2.14c-.36-.54-.81-1-1.2-1.52a4,4,0,0,1,.22-5.28,5.31,5.31,0,0,1,3.7-1.47"/></clipPath><clipPath id="clip-path-18" transform="translate(-1204 -2960.29)"><path class="cls-1" d="M1260.91,2981.19a3.06,3.06,0,0,1-2.82,2.77,5.94,5.94,0,0,1-1.52,0,2.79,2.79,0,0,1-2.56-3.15,18.43,18.43,0,0,1,.53-2.62c.29-1.25.63-2.5.91-3.75.17-.78,0-1-.84-1.13-.4-.05-.45-.19-.34-.51a2,2,0,0,1,1.51-1.34,1.27,1.27,0,0,0,.84-.63,3.54,3.54,0,0,1,4-1.69c.66.17.7.25.52.88s-.28,1.08-.45,1.73l2.35.2a2.18,2.18,0,0,1-2.19,2.32c-.58,0-.8.21-.91.72-.37,1.59-.77,3.18-1.16,4.76a2.17,2.17,0,0,0,0,.25c-.12,1,.27,1.41,1.33,1.32.28,0,.57-.07.89-.11"/></clipPath><clipPath id="clip-path-20" transform="translate(-1204 -2960.29)"><rect class="cls-2" x="1236.05" y="2965.29" width="4.31" height="4.14"/></clipPath><clipPath id="clip-path-22" transform="translate(-1204 -2960.29)"><rect class="cls-2" x="1236" y="2965" width="5" height="5"/></clipPath><clipPath id="clip-path-23" transform="translate(-1204 -2960.29)"><path class="cls-1" d="M1240.36,2967.21a2.19,2.19,0,0,1-1.25,1.9,2.16,2.16,0,0,1-2.45-.13,1.88,1.88,0,0,1-.18-2.6,2.34,2.34,0,0,1,2.47-1.05,1.73,1.73,0,0,1,1.41,1.88"/></clipPath></defs><title>Asset 7</title><g id="Layer_2" data-name="Layer 2"><g id="Layer_1-2" data-name="Layer 1"><g class="cls-3"><g class="cls-4"><rect class="cls-5" x="53" y="4.71" width="34" height="23"/></g></g><g class="cls-6"><g class="cls-4"><rect class="cls-5" y="0.71" width="26" height="27"/></g></g><g class="cls-7"><g class="cls-4"><rect class="cls-5" x="14" y="4.71" width="27" height="23"/></g></g><g class="cls-8"><g class="cls-4"><rect class="cls-5" x="30" y="4.71" width="24" height="23"/></g></g><g class="cls-9"><g class="cls-4"><rect class="cls-5" x="89" y="5.71" width="23" height="23"/></g></g><g class="cls-10"><g class="cls-4"><rect class="cls-5" x="75" y="4.71" width="23" height="23"/></g></g><g class="cls-11"><g class="cls-4"><g class="cls-12"><g class="cls-13"><g class="cls-14"><g class="cls-13"><rect class="cls-5" x="101.44" y="4.95" width="20.62" height="23.74"/></g></g></g></g></g></g><g class="cls-15"><g class="cls-4"><rect class="cls-5" x="45" y="3.71" width="19" height="25"/></g></g><g class="cls-16"><g class="cls-4"><g class="cls-12"><g class="cls-17"><g class="cls-18"><g class="cls-17"><rect class="cls-5" x="27.05" width="14.32" height="14.14"/></g></g></g></g></g></g></g></g></svg>