<svg xmlns="http://www.w3.org/2000/svg" xmlns:xlink="http://www.w3.org/1999/xlink" viewBox="0 0 121.68 59"><defs><style>.cls-1,.cls-2{fill:none;}.cls-1{clip-rule:evenodd;}.cls-3{clip-path:url(#clip-path);}.cls-4{clip-path:url(#clip-path-2);}.cls-5{fill:#231f20;}.cls-6{clip-path:url(#clip-path-3);}.cls-7{clip-path:url(#clip-path-5);}.cls-8{clip-path:url(#clip-path-7);}.cls-9{clip-path:url(#clip-path-9);}.cls-10{clip-path:url(#clip-path-11);}.cls-11{clip-path:url(#clip-path-13);}.cls-12{clip-path:url(#clip-path-15);}.cls-13{clip-path:url(#clip-path-17);}.cls-14{clip-path:url(#clip-path-19);}.cls-15{clip-path:url(#clip-path-21);}.cls-16{clip-path:url(#clip-path-23);}.cls-17{clip-path:url(#clip-path-25);}.cls-18{clip-path:url(#clip-path-27);}.cls-19{isolation:isolate;}.cls-20{clip-path:url(#clip-path-29);}.cls-21{clip-path:url(#clip-path-30);}.cls-22{clip-path:url(#clip-path-32);}.cls-23{clip-path:url(#clip-path-34);}.cls-24{clip-path:url(#clip-path-36);}.cls-25{clip-path:url(#clip-path-38);}.cls-26{clip-path:url(#clip-path-40);}.cls-27{clip-path:url(#clip-path-42);}.cls-28{clip-path:url(#clip-path-44);}.cls-29{clip-path:url(#clip-path-46);}.cls-30{clip-path:url(#clip-path-47);}.cls-31{clip-path:url(#clip-path-49);}.cls-32{fill:#a5a7aa;}.cls-33{clip-path:url(#clip-path-51);}.cls-34{clip-path:url(#clip-path-53);}.cls-35{fill:#bbbdbf;}.cls-36{clip-path:url(#clip-path-55);}</style><clipPath id="clip-path" transform="translate(-603 -2945)"><path class="cls-1" d="M681.43,2956.54c.62-2.06,1.21-3.89,1.72-5.77.18-.62.48-.77,1.1-.77,2.2,0,2.16,0,2.31,2.21.15,2.57.29,5.11.44,7.75h-2.35V2953a1,1,0,0,1-.29,0c-.62,2-1.28,3.93-1.83,5.92a1.17,1.17,0,0,1-1.32,1c-.85,0-.92-.48-1.07-1.07a54.62,54.62,0,0,0-1.68-5.63c-.11,2.25-.22,4.45-.33,6.77H676c.22-3.27.4-6.55.62-10,.92,0,1.8,0,2.68,0,.22,0,.51.41.59.66.47,1.66.91,3.31,1.35,4.93a3.79,3.79,0,0,0,.19.88"/></clipPath><clipPath id="clip-path-2" transform="translate(-603 -2945)"><rect class="cls-2" width="1920" height="4120"/></clipPath><clipPath id="clip-path-3" transform="translate(-603 -2945)"><path class="cls-1" d="M661,2985a10.14,10.14,0,0,1-1.84,0,1.45,1.45,0,0,1-.83-.69c-1.11-2-2.19-4.05-3.35-6.2v6.85h-2V2975a13.5,13.5,0,0,1,2.13,0,1.38,1.38,0,0,1,.79.66c1.05,1.85,2.05,3.79,3.13,5.76v-6.35h2Z"/></clipPath><clipPath id="clip-path-5" transform="translate(-603 -2945)"><path class="cls-1" d="M685,2978.11v6.74h-2V2975a14.49,14.49,0,0,1,2.19,0,1.33,1.33,0,0,1,.75.65c1,1.85,2,3.7,3.09,5.62v-6.23h2v9.68c-1.86.44-2.19.33-3-1.27s-1.9-3.41-2.94-5.4"/></clipPath><clipPath id="clip-path-7" transform="translate(-603 -2945)"><path class="cls-1" d="M649,2950.05a45.91,45.91,0,0,1,5,0,4.23,4.23,0,0,1,3.93,3.92,4.89,4.89,0,0,1-2.67,5.33,11.27,11.27,0,0,1-5.7.55c-.19,0-.52-.37-.52-.58-.08-3,0-6,0-9.26m2.37,8.13c.52,0,.89,0,1.26,0a3.15,3.15,0,0,0,2.85-3.74,2.83,2.83,0,0,0-3.48-2.68c-.22,0-.59.36-.59.58-.08,1.89,0,3.81,0,5.84"/></clipPath><clipPath id="clip-path-9" transform="translate(-603 -2945)"><path class="cls-1" d="M662,2980v-4.15c0-.51.14-.77.7-.77a34.2,34.2,0,0,1,4.42.08,4.19,4.19,0,0,1,3.78,3.71,4.94,4.94,0,0,1-2.41,5.39,10.52,10.52,0,0,1-6,.65c-.18,0-.48-.51-.51-.76,0-1.39,0-2.77,0-4.15m2.33,3.2c.56,0,1,0,1.38,0,1.89-.18,3-1.75,2.78-3.82a2.9,2.9,0,0,0-3.45-2.66.88.88,0,0,0-.63.66c-.11,1.89-.08,3.78-.08,5.82"/></clipPath><clipPath id="clip-path-11" transform="translate(-603 -2945)"><path class="cls-1" d="M657,2967.09c0-3,1.85-5.09,4.59-5.09s4.37,2,4.41,4.91c0,3.1-1.85,5.12-4.62,5.09s-4.38-2-4.38-4.91m2.64,1.71a4,4,0,0,0,.2.46,1.88,1.88,0,0,0,3.32-.11,4.35,4.35,0,0,0-.07-4.37,1.82,1.82,0,0,0-3.28,0,2.21,2.21,0,0,0-.24.54,4.94,4.94,0,0,0,.07,3.45"/></clipPath><clipPath id="clip-path-13" transform="translate(-603 -2945)"><path class="cls-1" d="M692,2967c0,3.06-1.82,5-4.6,5s-4.43-2.06-4.4-5,1.92-5,4.6-5,4.43,2,4.4,5m-2.65,1.78a5,5,0,0,0,.11-3.31,3.26,3.26,0,0,0-.24-.6,1.87,1.87,0,0,0-3.27-.22,4.67,4.67,0,0,0,0,4.7,1.86,1.86,0,0,0,3.23-.07,4,4,0,0,0,.2-.5"/></clipPath><clipPath id="clip-path-15" transform="translate(-603 -2945)"><path class="cls-1" d="M676.38,2985c-2.63,0-4.38-1.92-4.38-4.91s1.85-5.13,4.59-5.09,4.41,2,4.41,4.91c0,3.1-1.85,5.09-4.62,5.09m-2.26-5.05a14,14,0,0,0,.52,2,1.95,1.95,0,0,0,3.66,0,4.53,4.53,0,0,0-.14-4.09,1.84,1.84,0,0,0-3.35,0,9.39,9.39,0,0,0-.69,2.1"/></clipPath><clipPath id="clip-path-17" transform="translate(-603 -2945)"><path class="cls-1" d="M696.1,2968.19v3.68H694v-3c0-1.93,0-3.86,0-5.79,0-.76.21-1.06.91-1,1.05,0,2.07-.07,3.11,0a2.54,2.54,0,0,1,2.57,2,2.7,2.7,0,0,1-1.25,3.14,18.77,18.77,0,0,1,1,2.22c.27.76.41,1.6.68,2.59a8.79,8.79,0,0,1-1.72,0,1,1,0,0,1-.61-.58c-.21-.59-.31-1.24-.48-1.86-.37-1.24-.71-1.49-2.09-1.31m.1-4.74v2.92c.88,0,1.76.18,2.16-.8.14-.37.14-1.17-.07-1.28a10.93,10.93,0,0,0-2.09-.84"/></clipPath><clipPath id="clip-path-19" transform="translate(-603 -2945)"><path class="cls-1" d="M672.14,2967.28c1.32,1.28,1.22,3.06,1.86,4.7a9.44,9.44,0,0,1-1.79,0,1,1,0,0,1-.61-.62,13.84,13.84,0,0,1-.44-1.74c-.34-1.27-.61-1.49-2-1.42v3.74H667v-7.7c0-2.11,0-2.11,1.93-2.19a11.69,11.69,0,0,1,2,.08,2.65,2.65,0,0,1,2.64,2A2.76,2.76,0,0,1,672.14,2967.28Zm-3-.9c.88.07,1.72.21,2.16-.66a1.65,1.65,0,0,0-.1-1.45c-.5-.73-1.31-.55-2.06-.4Z"/></clipPath><clipPath id="clip-path-21" transform="translate(-603 -2945)"><path class="cls-1" d="M673.36,2955.08c.54,1.61,1.07,3.12,1.64,4.91a14.51,14.51,0,0,1-1.93,0c-.2,0-.44-.36-.5-.58-.2-.62-.3-1.25-.47-1.87-.33-1.28-.63-1.46-2-1.32v3.74H668c0-3.12,0-6.16,0-9.23a.78.78,0,0,1,.54-.59,24.85,24.85,0,0,1,3.23-.07,2.77,2.77,0,0,1,1.56,5Zm-3.19-.69c.8,0,1.66.18,2.1-.66a3.52,3.52,0,0,0-.14-2c-.46-.59-2-.22-2-.22Z"/></clipPath><clipPath id="clip-path-23" transform="translate(-603 -2945)"><path class="cls-1" d="M667,2959.93c-.73,0-1.4,0-2,0-.18,0-.4-.22-.51-.36s-.12-.4-.19-.58c-.22-.51-.29-1.35-.66-1.49a6.15,6.15,0,0,0-2.31-.08c-.15,0-.3.22-.41.37a1.45,1.45,0,0,0-.11.4c-.58,2-.58,2-2.79,1.67a3.82,3.82,0,0,1,.11-.55c.88-2.83,1.76-5.67,2.61-8.51.18-.62.44-.76,1.06-.8,2.17,0,2.17,0,2.83,2,.74,2.3,1.44,4.59,2.17,6.88,0,.29.11.62.22,1.09m-5.62-4.36h2.06c-.33-1.2-.66-2.29-1.07-3.68-.37,1.42-.66,2.51-1,3.68"/></clipPath><clipPath id="clip-path-25" transform="translate(-603 -2945)"><path class="cls-1" d="M696,2960a10,10,0,0,1-1.85,0c-.29,0-.55-.36-.76-.58s-.08-.26-.11-.37c-.22-.51-.33-1.34-.69-1.45a5.33,5.33,0,0,0-2.29-.08c-.18,0-.4.48-.47.77-.62,2-.58,2-2.83,1.64.36-1.28.76-2.51,1.12-3.75l1.64-5.32c.14-.54.4-.72,1-.76,2.21,0,2.21-.07,2.86,2,.73,2.55,1.53,5.13,2.4,7.9m-5.63-4.37h2c-.33-1.2-.65-2.29-1-3.64-.33,1.35-.62,2.44-1,3.64"/></clipPath><clipPath id="clip-path-27" transform="translate(-603 -2945)"><rect class="cls-2" x="710.6" y="2974.93" width="9.07" height="9.77"/></clipPath><clipPath id="clip-path-29" transform="translate(-603 -2945)"><rect class="cls-2" x="710" y="2974" width="10" height="11"/></clipPath><clipPath id="clip-path-30" transform="translate(-603 -2945)"><path class="cls-1" d="M719.68,2984.66a19.19,19.19,0,0,1-2.06,0,1.16,1.16,0,0,1-.55-.46c-.11-.11-.11-.32-.15-.47-.47-1.53-1.39-2-3-1.53a1,1,0,0,0-.41.36,1.48,1.48,0,0,0-.11.39c-.58,1.92-.58,1.92-2.83,1.67.08-.24.12-.49.19-.74.84-2.68,1.69-5.38,2.5-8.05a1,1,0,0,1,1.21-.86c2.06,0,2.06,0,2.68,1.89C718,2979.35,718.76,2981.88,719.68,2984.66Zm-3.67-4.28c-.37-1.17-.67-2.24-1.07-3.56-.37,1.32-.66,2.39-1,3.56Z"/></clipPath><clipPath id="clip-path-32" transform="translate(-603 -2945)"><path class="cls-1" d="M701,2971.93c.93-3.13,1.84-6.07,2.7-9,.18-.62.43-.94,1.15-.91,2,0,2,0,2.7,2,.79,2.58,1.59,5.16,2.45,8-.94-.11-1.91.11-2.45-.33s-.54-1.45-.83-2.25H706c-1.91,0-1.94,0-2.45,1.78-.14.55-.39.8-1,.76A11.39,11.39,0,0,0,701,2971.93Zm5.44-4.33c-.36-1.23-.65-2.29-1.05-3.67-.36,1.42-.65,2.51-1,3.67Z"/></clipPath><clipPath id="clip-path-34" transform="translate(-603 -2945)"><path class="cls-1" d="M697.83,2975v1.63h-3.56v1.9h3.35v1.67h-3.35v2.1H698v1.7h-6v-9c2,0,3.84,0,5.83,0"/></clipPath><clipPath id="clip-path-36" transform="translate(-603 -2945)"><path class="cls-1" d="M677.21,2968.74V2972H675v-7.4c0-2.56,0-2.6,2.57-2.6a9,9,0,0,1,1.95.18,3,3,0,0,1,2.46,2.71,3,3,0,0,1-1.92,3.26,23.32,23.32,0,0,1-2.85.59m0-4.91v1.36a8.68,8.68,0,0,0,0,1,.79.79,0,0,0,.25.48,1.75,1.75,0,0,0,2.21-1.17c.24-1.32-.54-1.87-2.46-1.69"/></clipPath><clipPath id="clip-path-38" transform="translate(-603 -2945)"><path class="cls-1" d="M699,2984.3c.15-.53.29-1.1.44-1.59a19.52,19.52,0,0,0,2.7.39.84.84,0,0,0,.3-.08,1.07,1.07,0,0,0,.37-1.77.77.77,0,0,0-.19-.14,12.7,12.7,0,0,0-1.85-.82,2.52,2.52,0,0,1-1.55-2.66,2.7,2.7,0,0,1,2-2.3,5.8,5.8,0,0,1,4.36.21c-.15.57-.33,1.1-.48,1.67a8.77,8.77,0,0,0-2.07-.32.82.82,0,0,0-.3.07,1,1,0,0,0-.29,1.74s.07,0,.11.07c.63.39,1.4.53,2,.92a2.68,2.68,0,0,1-.22,4.83,6.46,6.46,0,0,1-5.36-.22"/></clipPath><clipPath id="clip-path-40" transform="translate(-603 -2945)"><path class="cls-1" d="M656,2962.45c-.18.65-.33,1.18-.51,1.75-1.65-.43-3.25-.64-4.42.82a3.52,3.52,0,0,0-.11,3.85c1.13,1.6,2.77,1.38,4.38,1,.07.07.15.11.15.14.47,1.57.36,1.75-1.28,1.92-.44,0-.88,0-1.32,0a4.68,4.68,0,0,1-4.85-4.31,4.9,4.9,0,0,1,3.79-5.49,7,7,0,0,1,4.17.25"/></clipPath><clipPath id="clip-path-42" transform="translate(-603 -2945)"><path class="cls-1" d="M651,2985h-2v-9.78c.09,0,.16-.15.25-.15,1.75-.18,1.75-.18,1.75,1.84,0,2.67,0,5.31,0,8.09"/></clipPath><clipPath id="clip-path-44" transform="translate(-603 -2945)"><rect class="cls-2" x="608" y="2950" width="112" height="49"/></clipPath><clipPath id="clip-path-46" transform="translate(-603 -2945)"><rect class="cls-2" x="608" y="2950" width="102" height="49"/></clipPath><clipPath id="clip-path-47" transform="translate(-603 -2945)"><rect class="cls-2" x="708" y="2975" width="2" height="9"/></clipPath><clipPath id="clip-path-49" transform="translate(-603 -2945)"><polygon class="cls-1" points="608 2950 625 2950 625 2976.98 608 2991 608 2950"/></clipPath><clipPath id="clip-path-51" transform="translate(-603 -2945)"><polygon class="cls-1" points="625 2950 642 2950 642 2984.9 625 2999 625 2950"/></clipPath><clipPath id="clip-path-53" transform="translate(-603 -2945)"><polygon class="cls-1" points="618 2995 635 2980.85 635 2969 618 2983.15 618 2995"/></clipPath><clipPath id="clip-path-55" transform="translate(-603 -2945)"><polygon class="cls-1" points="625 2969 635 2961.53 635 2950 625 2957.5 625 2969"/></clipPath></defs><title>Asset 4</title><g id="Layer_2" data-name="Layer 2"><g id="Layer_1-2" data-name="Layer 1"><g class="cls-3"><g class="cls-4"><rect class="cls-5" x="68" width="21" height="20"/></g></g><g class="cls-6"><g class="cls-4"><rect class="cls-5" x="45" y="25" width="18" height="20"/></g></g><g class="cls-7"><g class="cls-4"><rect class="cls-5" x="75" y="25" width="18" height="20"/></g></g><g class="cls-8"><g class="cls-4"><rect class="cls-5" x="41" width="19" height="20"/></g></g><g class="cls-9"><g class="cls-4"><rect class="cls-5" x="54" y="25" width="19" height="20"/></g></g><g class="cls-10"><g class="cls-4"><rect class="cls-5" x="49" y="12" width="19" height="20"/></g></g><g class="cls-11"><g class="cls-4"><rect class="cls-5" x="75" y="12" width="19" height="20"/></g></g><g class="cls-12"><g class="cls-4"><rect class="cls-5" x="64" y="25" width="19" height="20"/></g></g><g class="cls-13"><g class="cls-4"><rect class="cls-5" x="86" y="12" width="17" height="20"/></g></g><g class="cls-14"><g class="cls-4"><rect class="cls-5" x="59" y="12" width="17" height="20"/></g></g><g class="cls-15"><g class="cls-4"><rect class="cls-5" x="60" width="17" height="20"/></g></g><g class="cls-16"><g class="cls-4"><rect class="cls-5" x="50" width="19" height="20"/></g></g><g class="cls-17"><g class="cls-4"><rect class="cls-5" x="79" width="19" height="20"/></g></g><g class="cls-18"><g class="cls-4"><g class="cls-19"><g class="cls-20"><g class="cls-21"><g class="cls-20"><rect class="cls-5" x="102.6" y="24.93" width="19.08" height="19.77"/></g></g></g></g></g></g><g class="cls-22"><g class="cls-4"><rect class="cls-5" x="93" y="12" width="19" height="20"/></g></g><g class="cls-23"><g class="cls-4"><rect class="cls-5" x="84" y="25" width="16" height="19"/></g></g><g class="cls-24"><g class="cls-4"><rect class="cls-5" x="67" y="12" width="17" height="20"/></g></g><g class="cls-25"><g class="cls-4"><rect class="cls-5" x="91" y="25" width="17" height="20"/></g></g><g class="cls-26"><g class="cls-4"><rect class="cls-5" x="40" y="12" width="18" height="20"/></g></g><g class="cls-27"><g class="cls-4"><rect class="cls-5" x="41" y="25" width="12" height="20"/></g></g><g class="cls-28"><g class="cls-4"><g class="cls-19"><g class="cls-29"><g class="cls-30"><g class="cls-29"><rect class="cls-5" x="100" y="25" width="12" height="19"/></g></g><g class="cls-31"><g class="cls-29"><rect class="cls-32" width="27" height="51"/></g></g><g class="cls-33"><g class="cls-29"><rect class="cls-5" x="17" width="27" height="59"/></g></g><g class="cls-34"><g class="cls-29"><rect class="cls-35" x="10" y="19" width="27" height="36"/></g></g><g class="cls-36"><g class="cls-29"><rect class="cls-35" x="17" width="20" height="29"/></g></g></g></g></g></g></g></g></svg>