<?xml version="1.0" encoding="utf-8"?>
<!-- Generator: Adobe Illustrator 22.1.0, SVG Export Plug-In . SVG Version: 6.00 Build 0)  -->
<svg version="1.1" id="Layer_1" xmlns="http://www.w3.org/2000/svg" xmlns:xlink="http://www.w3.org/1999/xlink" x="0px" y="0px"
	 viewBox="0 0 535 535" style="enable-background:new 0 0 535 535;" xml:space="preserve">
<style type="text/css">
	.st0{clip-path:url(#SVGID_2_);fill:#43B785;}
	.st1{clip-path:url(#SVGID_2_);fill:#FFFFFF;}
</style>
<g>
	<defs>
		<rect id="SVGID_1_" width="535" height="535"/>
	</defs>
	<clipPath id="SVGID_2_">
		<use xlink:href="#SVGID_1_"  style="overflow:visible;"/>
	</clipPath>
	<path class="st0" d="M266,0C266,0,0,0,0,266v269h269c0,0,266,0,266-266V0H266z"/>
	<path class="st1" d="M120,299.9c-17.2,0-31.1-14.5-31.1-32.3c0-17.9,13.9-32.4,31.1-32.4c17.2,0,31.1,14.5,31.1,32.4
		C151.1,285.4,137.2,299.9,120,299.9 M443.9,213.6v41.9h-29.7v-41.9h-23.1v41.9H170.6c-5.2-24-25.9-41.9-50.6-41.9
		c-28.7,0-51.9,24.1-51.9,53.9c0,29.8,23.2,53.9,51.9,53.9c24.7,0,45.4-17.9,50.6-41.9h220.5h23.1h29.7h23.1v-24v-41.9H443.9z"/>
</g>
</svg>
